<svg version="1.1" id="Layer_1" xmlns:x="&ns_extend;" xmlns:i="&ns_ai;" xmlns:graph="&ns_graphs;"
	 xmlns="http://www.w3.org/2000/svg" xmlns:xlink="http://www.w3.org/1999/xlink" x="0px" y="0px" width="64px" height="64px"
	 viewBox="0 0 64 64" enable-background="new 0 0 64 64" xml:space="preserve">

	<g i:extraneous="self">
		<g>
			<rect x="8.463" y="15.873" fill="#FE414D" width="46.574" height="31.866"/>
			<path fill="#FFB520" d="M32.001,63.187c17.223,0,31.186-13.963,31.186-31.187c0-17.224-13.963-31.186-31.186-31.186
				C14.777,0.814,0.813,14.776,0.813,32C0.813,49.224,14.777,63.187,32.001,63.187z M21.944,24.453h-11.03v-7.354h11.03V24.453z
				 M37.878,24.453h-11.03v-7.354h11.03V24.453z M53.812,24.453H42.78v-7.354h11.032V24.453z M21.944,35.483h-11.03V28.13h11.03
				V35.483z M37.878,35.483h-11.03V28.13h11.03V35.483z M53.812,35.483H42.78V28.13h11.032V35.483z M21.944,46.515h-11.03v-7.354
				h11.03V46.515z M37.878,46.515h-11.03v-7.354h11.03V46.515z M53.812,46.515H42.78v-7.354h11.032V46.515z"/>
		</g>
	</g>
</svg>
